<?xml version="1.0" encoding="UTF-8"?>
<svg width="20px" height="22px" viewBox="0 0 20 22" version="1.1" xmlns="http://www.w3.org/2000/svg" xmlns:xlink="http://www.w3.org/1999/xlink">
    <!-- Generator: Sketch 48.2 (47327) - http://www.bohemiancoding.com/sketch -->
    <title>calendar-icon</title>
    <desc>Created with Sketch.</desc>
    <defs>
        <polygon id="path-1" points="0 0 19.9705729 0 19.9705729 21.3179687 0 21.3179687"></polygon>
    </defs>
    <g id="Desktop-HD" stroke="none" stroke-width="1" fill="none" fill-rule="evenodd" transform="translate(-1062.000000, -251.000000)">
        <g id="request-a-trip-(option-1)" transform="translate(919.000000, 113.000000)">
            <g id="calendar-icon" transform="translate(143.000000, 138.000000)">
                <mask id="mask-2" fill="white">
                    <use xlink:href="#path-1"></use>
                </mask>
                <g id="Clip-2"></g>
                <path d="M3.99307292,3.99057292 L5.30364583,3.99057292 L5.30364583,1.34989583 L3.99307292,1.34989583 L3.99307292,3.99057292 Z M14.665,3.99072917 L15.9738021,3.99072917 L15.9738021,1.34671875 L14.665,1.34671875 L14.665,3.99072917 Z M1.33291667,19.9895833 L18.6416667,19.9895833 L18.6416667,6.68083333 L1.33291667,6.68083333 L1.33291667,19.9895833 Z M13.816875,0 L16.816875,0 C17.1907813,0.154895833 17.336875,0.43234375 17.32125,0.836458333 C17.3003646,1.3771875 17.3161458,1.91932292 17.3161458,2.46088542 L17.3161458,2.67401042 L19.970625,2.67401042 L19.970625,21.3179687 L0,21.3179687 L0,2.65942708 L2.65098958,2.65942708 C2.65098958,2.04114583 2.66682292,1.438125 2.64546875,0.83640625 C2.63109375,0.431354167 2.77817708,0.155989583 3.15020833,0 L6.15020833,0 C6.52229167,0.155989583 6.670625,0.431354167 6.65489583,0.836458333 C6.63359375,1.3840625 6.65026042,1.93322917 6.65182292,2.48171875 C6.65197917,2.5409375 6.65989583,2.60015625 6.66395833,2.65552083 L13.3176563,2.65552083 C13.3176563,2.04125 13.3334896,1.43817708 13.3120833,0.83640625 C13.2977604,0.431354167 13.4448438,0.155989583 13.816875,0 Z" id="Fill-1" fill="#FFFFFF" mask="url(#mask-2)"></path>
                <polygon id="Fill-3" fill="#FFFFFF" mask="url(#mask-2)" points="10.6671354 18.6634896 13.3041146 18.6634896 13.3041146 16.0148438 10.6671354 16.0148438"></polygon>
                <polygon id="Fill-4" fill="#FFFFFF" mask="url(#mask-2)" points="6.66286458 18.6529167 9.30828125 18.6529167 9.30828125 16.010625 6.66286458 16.010625"></polygon>
                <polygon id="Fill-5" fill="#FFFFFF" mask="url(#mask-2)" points="2.65932292 18.6510937 5.29942708 18.6510937 5.29942708 16.0109896 2.65932292 16.0109896"></polygon>
                <polygon id="Fill-6" fill="#FFFFFF" mask="url(#mask-2)" points="14.6596354 14.6529167 17.3008854 14.6529167 17.3008854 12.0106771 14.6596354 12.0106771"></polygon>
                <polygon id="Fill-7" fill="#FFFFFF" mask="url(#mask-2)" points="10.6600521 14.6557292 13.3036979 14.6557292 13.3036979 12.0151563 10.6600521 12.0151563"></polygon>
                <polygon id="Fill-8" fill="#FFFFFF" mask="url(#mask-2)" points="6.66104167 14.6565104 9.30145833 14.6565104 9.30145833 12.0164062 6.66104167 12.0164062"></polygon>
                <polygon id="Fill-9" fill="#FFFFFF" mask="url(#mask-2)" points="2.66666667 14.6544792 5.30713542 14.6544792 5.30713542 12.0148958 2.66666667 12.0148958"></polygon>
                <polygon id="Fill-10" fill="#FFFFFF" mask="url(#mask-2)" points="14.6647396 10.6510417 17.3064583 10.6510417 17.3064583 8.00973958 14.6647396 8.00973958"></polygon>
                <polygon id="Fill-11" fill="#FFFFFF" mask="url(#mask-2)" points="10.6590625 10.6508854 13.2991667 10.6508854 13.2991667 8.01130208 10.6590625 8.01130208"></polygon>
                <polygon id="Fill-12" fill="#FFFFFF" mask="url(#mask-2)" points="6.66083333 10.656875 9.30151042 10.656875 9.30151042 8.0165625 6.66083333 8.0165625"></polygon>
            </g>
        </g>
    </g>
</svg>