<?xml version="1.0" encoding="UTF-8"?>
<svg width="28px" height="21px" viewBox="0 0 28 21" version="1.1" xmlns="http://www.w3.org/2000/svg" xmlns:xlink="http://www.w3.org/1999/xlink">
    <!-- Generator: Sketch 48.2 (47327) - http://www.bohemiancoding.com/sketch -->
    <title>guests-icon</title>
    <desc>Created with Sketch.</desc>
    <defs>
        <polygon id="path-1" points="0.0006 0.00129 27.06 0.00129 27.06 20.49009 0.0006 20.49009"></polygon>
    </defs>
    <g id="Desktop-HD" stroke="none" stroke-width="1" fill="none" fill-rule="evenodd" transform="translate(-1216.000000, -250.000000)">
        <g id="request-a-trip-(option-1)" transform="translate(919.000000, 113.000000)">
            <g id="guests-icon" transform="translate(311.000000, 147.500000) scale(-1, 1) translate(-311.000000, -147.500000) translate(297.000000, 137.000000)">
                <mask id="mask-2" fill="white">
                    <use xlink:href="#path-1"></use>
                </mask>
                <g id="Clip-2"></g>
                <path d="M0.0006,20.49009 L15.1986,20.49009 L15.1986,18.58809 C15.1986,14.40309 11.7906,10.99209 7.5936,10.99209 C3.3996,10.99209 0.0006,14.40309 0.0006,18.58809 L0.0006,20.49009 Z M22.1256,20.49009 L16.4076,20.49009 L16.4076,18.58809 C16.4076,17.15709 16.0206,15.80709 15.4116,14.61309 C15.8796,14.47509 16.3716,14.37909 16.8876,14.37909 C19.7706,14.37909 22.1256,16.72509 22.1256,19.61709 L22.1256,20.49009 Z M7.5936,9e-05 C4.9236,9e-05 2.7546,2.18109 2.7546,4.85409 C2.7546,7.52409 4.9236,9.70509 7.5936,9.70509 C10.2666,9.70509 12.4446,7.52409 12.4446,4.85409 C12.4446,2.18109 10.2666,9e-05 7.5936,9e-05 Z M27.0606,20.49009 L23.3196,20.49009 L23.3196,19.61709 C23.3196,18.43209 22.9806,17.33409 22.4196,16.38309 C22.7466,16.29009 23.0856,16.22109 23.4366,16.22109 C25.4316,16.22109 27.0606,17.85009 27.0606,19.84209 L27.0606,20.49009 Z M16.8876,6.55209 C15.0696,6.55209 13.6056,8.02809 13.6056,9.83409 C13.6056,11.63709 15.0696,13.11309 16.8876,13.11309 C18.6906,13.11309 20.1696,11.63709 20.1696,9.83409 C20.1696,8.02809 18.6906,6.55209 16.8876,6.55209 Z M23.4366,10.56009 C22.2186,10.56009 21.2346,11.54409 21.2346,12.76209 C21.2346,13.98309 22.2186,14.96709 23.4366,14.96709 C24.6576,14.96709 25.6416,13.98309 25.6416,12.76209 C25.6416,11.54409 24.6576,10.56009 23.4366,10.56009 Z" id="Fill-1" fill="#FFFFFF" mask="url(#mask-2)"></path>
            </g>
        </g>
    </g>
</svg>